<?xml version="1.0" standalone="no"?><!DOCTYPE svg PUBLIC "-//W3C//DTD SVG 1.1//EN" "http://www.w3.org/Graphics/SVG/1.1/DTD/svg11.dtd"><svg width="100%" height="100%" viewBox="0 0 68 80" version="1.1" xmlns="http://www.w3.org/2000/svg" xmlns:xlink="http://www.w3.org/1999/xlink" xml:space="preserve" style="fill-rule:evenodd;clip-rule:evenodd;stroke-linejoin:round;stroke-miterlimit:1.41421;"><g id="Isolation Mode"><g><clipPath id="_clip1"><rect x="0" y="0" width="68.004" height="80"/></clipPath><g clip-path="url(#_clip1)"><path d="M0,0c0,0 0.053,27.521 5.4,44.162c4.848,15.089 15.728,27.696 28.766,35.838c13.039,-8.142 23.59,-20.749 28.439,-35.838c5.346,-16.641 5.399,-44.162 5.399,-44.162l-68.004,0Z" style="fill:#231f20;fill-rule:nonzero;"/><path d="M34.167,78.668c-13.201,-8.429 -23.275,-21.096 -27.695,-34.849c-4.626,-14.395 -5.251,-37.366 -5.334,-42.694l65.729,0c-0.083,5.329 -0.709,28.303 -5.333,42.694c-4.537,14.118 -14.241,26.469 -27.367,34.849" style="fill:#ffd51f;fill-rule:nonzero;"/><path d="M12.243,39.773c0.112,-0.113 0.613,-0.625 1.074,-0.995c2.81,-2.258 7.784,-6.804 13.553,-6.208c5.324,0.551 7.41,4.565 7.41,4.565c-2.354,2.536 -3.908,6.377 -4.025,9.486c-0.117,3.11 0.849,22.222 0.849,22.222c0,0 0.148,5.056 0.268,8.007c0.917,0.65 1.845,1.283 2.795,1.891c0.775,-0.496 1.537,-1.008 2.288,-1.53l0.449,-21.243c0.237,-3.529 -0.373,-8.24 2.511,-11.176c0.193,-0.197 1.072,-0.942 1.072,-0.942c0,0 0.882,0.75 1.149,0.924c0.133,0.085 0.306,0.07 0.425,-0.033l6.73,-5.793c0.117,-0.102 0.186,-0.266 0.126,-0.409c-0.219,-0.517 -0.607,-1.231 -0.607,-1.231c0,0 5.422,-5.335 8.83,-7.709c0.332,-0.23 0.114,-0.673 -0.291,-0.499c-1.66,0.71 -3.509,0.457 -4.512,-0.545c-0.432,-0.433 -0.632,-1.082 -1.163,-0.727c-3.966,2.641 -7.232,3.658 -7.232,3.658c-1.207,-1.026 -1.954,-2.079 -2.647,-3.305c-3.262,-6.653 -1.631,-15.31 3.075,-20.766c1.441,-1.694 2.876,-2.814 4.626,-3.833c0.21,-0.122 0.242,-0.509 -0.208,-0.483c-14.786,0.856 -27.929,10.615 -33.776,24.139c-1.692,3.916 -3.016,8.358 -3.2,12.144c-0.021,0.418 0.09,0.732 0.431,0.391" style="fill:#231f20;fill-rule:nonzero;"/><path d="M49.549,30.906c0.515,-0.091 1.113,-0.061 1.302,0.137c0.31,0.326 -0.415,1.377 -0.805,2.033c-0.927,1.56 -1.002,1.689 -1.926,3.115c0,0 -0.092,-0.687 0.098,-1.353c0.212,-0.744 0.615,-1.432 0.905,-1.873c0.356,-0.542 0.728,-0.914 0.668,-1.161c-0.065,-0.263 -1.082,0.081 -1.492,0.135c-0.465,0.063 -1.625,0.479 -2.626,-0.105c0,0 2.71,-0.72 3.876,-0.928" style="fill:#ffd51f;fill-rule:nonzero;"/><path d="M34.003,44.185c0.397,-0.145 2.263,-1.34 3.781,-1.177c1.078,0.117 1.667,0.546 1.667,0.546c-1.094,0.09 -2.026,-0.062 -3.81,0.829c-0.899,0.45 -2.031,1.357 -2.635,0.72c-0.419,-0.443 -0.403,-1.321 0.003,-3.198c0.448,-2.062 1.293,-3.366 1.293,-3.366c0,0 0.05,0.767 -0.656,4.668c-0.123,0.678 -0.12,1.153 0.357,0.978" style="fill:#ffd51f;fill-rule:nonzero;"/><path d="M31.873,67.152c0,0 -0.164,1.436 0.963,2.806c1.128,1.371 2.789,3.075 2.789,3.075c0,0 0.289,-1.171 -0.889,-2.602c-1.177,-1.432 -2.863,-3.279 -2.863,-3.279" style="fill:#ffd51f;fill-rule:nonzero;"/><path d="M31.434,56.859c0,0 -0.094,1.488 1.138,2.838c1.234,1.353 3.199,3.232 3.199,3.232c0,0 0.237,-1.221 -1.051,-2.633c-1.287,-1.411 -3.286,-3.437 -3.286,-3.437" style="fill:#ffd51f;fill-rule:nonzero;"/><path d="M31.232,46.594c0,0 -0.206,1.426 1.072,2.961c1.279,1.537 3.751,4.484 3.751,4.484c0,0 0.239,-1.447 -1.095,-3.053c-1.335,-1.605 -3.728,-4.392 -3.728,-4.392" style="fill:#ffd51f;fill-rule:nonzero;"/></g></g></g></svg>